# xmcd
#
# Track frame offsets:
#	150
#	13536
#	28808
#	43570
#	56047
#	74177
#	90649
#	105957
#	122053
#	134526
#	151210
#	165231
#	181442
#	200387
#	216924
#
# Disc length: 3071 seconds
#
# Revision: 1
# Processed by: cddbd v1.5.1PL0 Copyright (c) Steve Scherf et al.
# Submitted via: audiograbber 1.82.02
#
DISCID=cf0bfd0f
DTITLE=Various Artist - Nashville Sound Vol 4
DYEAR=1900
DGENRE=Karoke
TTITLE0=Trisdha Yearwood - XXX's and OOO's ( an American girl )
TTITLE1=Mark Chesnutt - Brother Jukebox
TTITLE2=Chely Wright - He's a good ole boy
TTITLE3=Tracy Lawerence - If the good die young
TTITLE4=Dolly Parton - Silver and Gold
TTITLE5=George Strait - The man in love with you
TTITLE6=Garth Brooks - We bury the hatchet
TTITLE7=Alan Jackson - Summertime blues
TTITLE8=Marty Stuart - Hillbilly Rock
TTITLE9=Neal McCoy - The city put the country back in me
TTITLE10=Holly Dunn - You really had me going
TTITLE11=Hal Ketchum - Tonight we just might fall in love
TTITLE12=Faith Hill - But I will
TTITLE13=Billy Dean - If there hadn't been you
TTITLE14=Pam Tillis - When you walk in the room
EXTD=
EXTT0=
EXTT1=
EXTT2=
EXTT3=
EXTT4=
EXTT5=
EXTT6=
EXTT7=
EXTT8=
EXTT9=
EXTT10=
EXTT11=
EXTT12=
EXTT13=
EXTT14=
PLAYORDER=
